<svg width="23" height="31" viewBox="0 0 23 31" fill="none" xmlns="http://www.w3.org/2000/svg">
<path d="M15.27 16.51C16.5917 16.9136 17.7049 17.8148 18.3749 19.0234C19.0449 20.2321 19.2193 21.6537 18.8613 22.9884C18.5033 24.3232 17.6409 25.4667 16.456 26.1778C15.271 26.8889 13.8562 27.112 12.51 26.8L4.02 24.52M15.27 16.51C15.9558 16.7236 16.6776 16.7964 17.3922 16.724C18.1068 16.6516 18.7994 16.4355 19.4283 16.0888C20.0573 15.742 20.6097 15.2717 21.0524 14.706C21.4951 14.1404 21.8188 13.4912 22.0043 12.7973C22.1897 12.1034 22.233 11.3792 22.1315 10.6681C22.0301 9.95708 21.7859 9.27388 21.4138 8.65956C21.0417 8.04524 20.5492 7.51246 19.966 7.09324C19.3828 6.67402 18.7209 6.37699 18.02 6.22L9.53 3.94M15.27 16.51L6.78 14.23M4.02 24.52L9.53 3.94M4.02 24.52L1 23.71M9.53 3.94L6.52 3.14M12.15 4.65L13.13 1M16.35 5.77L17.33 2.12M5.66 28.87L6.64 25.22M9.86 30L10.84 26.35" stroke="black" stroke-opacity="0.2" stroke-linecap="round" stroke-linejoin="round"/>
</svg>
