<svg width="73" height="15" viewBox="0 0 73 15" fill="none" xmlns="http://www.w3.org/2000/svg">
<path d="M0.15625 3.76172C0.414062 3.79297 0.648438 3.81641 0.859375 3.83203C1.0625 3.84766 1.23828 3.86328 1.38672 3.87891C1.55859 3.89453 1.71094 3.90625 1.84375 3.91406C1.98438 3.91406 2.16406 3.91016 2.38281 3.90234C2.57031 3.89453 2.80859 3.88281 3.09766 3.86719C3.38672 3.85156 3.74219 3.82422 4.16406 3.78516C3.96094 3.90234 3.79297 4.01953 3.66016 4.13672C3.53516 4.25391 3.4375 4.35938 3.36719 4.45312C3.28125 4.5625 3.21875 4.67188 3.17969 4.78125C3.15625 4.92969 3.16406 5.21875 3.20312 5.64844C3.21875 5.82812 3.24219 6.05078 3.27344 6.31641C3.3125 6.57422 3.35938 6.88281 3.41406 7.24219C3.47656 7.59375 3.55078 8 3.63672 8.46094C3.73047 8.92188 3.83594 9.44531 3.95312 10.0312C4.10938 9.58594 4.23828 9.19141 4.33984 8.84766C4.44141 8.49609 4.52734 8.19531 4.59766 7.94531C4.67578 7.66406 4.74219 7.41406 4.79688 7.19531C4.85156 6.96875 4.91797 6.67578 4.99609 6.31641C5.05859 6.01172 5.14062 5.61719 5.24219 5.13281C5.34375 4.64844 5.46875 4.05078 5.61719 3.33984L6.03906 3.39844C6.07812 3.95313 6.11719 4.44141 6.15625 4.86328C6.20312 5.28516 6.24219 5.64453 6.27344 5.94141C6.30469 6.28516 6.33594 6.58203 6.36719 6.83203C6.39844 7.05859 6.44531 7.32031 6.50781 7.61719C6.5625 7.86719 6.63281 8.17578 6.71875 8.54297C6.80469 8.90234 6.91797 9.30859 7.05859 9.76172C7.19922 9.20703 7.32422 8.71094 7.43359 8.27344C7.55078 7.83594 7.64844 7.44922 7.72656 7.11328C7.8125 6.77734 7.88281 6.48828 7.9375 6.24609C8 6.00391 8.05078 5.80078 8.08984 5.63672C8.17578 5.24609 8.22656 4.98438 8.24219 4.85156C8.23438 4.70312 8.19922 4.55859 8.13672 4.41797C8.08203 4.29297 7.99609 4.15625 7.87891 4.00781C7.76172 3.85938 7.58984 3.71484 7.36328 3.57422C7.83984 3.58984 8.22656 3.60156 8.52344 3.60938C8.82812 3.60938 9.07031 3.60938 9.25 3.60938H9.71875H10.1406C10.2969 3.60938 10.5 3.60938 10.75 3.60938C11.0078 3.60156 11.3359 3.58984 11.7344 3.57422C11.3906 3.75391 11.1133 3.91797 10.9023 4.06641C10.6914 4.21484 10.5273 4.33984 10.4102 4.44141C10.2695 4.56641 10.168 4.67188 10.1055 4.75781C10.043 4.91406 9.94141 5.26562 9.80078 5.8125C9.73828 6.04688 9.66797 6.33984 9.58984 6.69141C9.51172 7.03516 9.41797 7.44922 9.30859 7.93359C9.20703 8.41797 9.08984 8.98438 8.95703 9.63281C8.82422 10.2734 8.67578 11.0078 8.51172 11.8359L6.48438 11.625L5.61719 7.98047C5.48438 8.64453 5.37891 9.18359 5.30078 9.59766C5.22266 10.0039 5.16406 10.3203 5.125 10.5469C5.07812 10.8203 5.05078 11.0195 5.04297 11.1445C5.03516 11.2539 5.02734 11.3594 5.01953 11.4609C5.01172 11.5469 5 11.6406 4.98438 11.7422C4.97656 11.8438 4.96484 11.9375 4.94922 12.0234H2.875C2.67188 11.1328 2.48828 10.3477 2.32422 9.66797C2.16797 8.98047 2.02734 8.37891 1.90234 7.86328C1.77734 7.34766 1.66797 6.91016 1.57422 6.55078C1.48828 6.19141 1.41016 5.89062 1.33984 5.64844C1.18359 5.08594 1.07031 4.73828 1 4.60547C0.945312 4.54297 0.875 4.46875 0.789062 4.38281C0.71875 4.3125 0.632812 4.22656 0.53125 4.125C0.421875 4.01562 0.296875 3.89453 0.15625 3.76172ZM10.4688 6.76172L12.625 6.78516C12.5 7.26172 12.4062 7.66797 12.3438 8.00391C12.2891 8.33984 12.2539 8.62109 12.2383 8.84766C12.207 9.10547 12.1992 9.32422 12.2148 9.50391C12.2383 9.66797 12.2773 9.84375 12.332 10.0312C12.3789 10.1875 12.4492 10.3672 12.543 10.5703C12.6367 10.7734 12.7617 10.9766 12.918 11.1797C12.8242 11.1484 12.7227 11.125 12.6133 11.1094C12.5039 11.0938 12.4023 11.082 12.3086 11.0742C12.1992 11.0664 12.0898 11.0664 11.9805 11.0742C11.8711 11.082 11.75 11.0938 11.6172 11.1094C11.5078 11.125 11.375 11.1445 11.2188 11.168C11.0625 11.1914 10.8984 11.2227 10.7266 11.2617C10.8438 10.9102 10.9336 10.6055 10.9961 10.3477C11.0664 10.0898 11.1172 9.875 11.1484 9.70312C11.1797 9.5 11.1992 9.33594 11.207 9.21094C11.207 9.05469 11.207 8.87891 11.207 8.68359C11.207 8.48047 11.207 8.28516 11.207 8.09766C11.207 7.91016 11.2031 7.74609 11.1953 7.60547C11.1875 7.45703 11.1719 7.36328 11.1484 7.32422L11.0312 7.20703C10.9844 7.16797 10.9141 7.11328 10.8203 7.04297C10.7344 6.96484 10.6172 6.87109 10.4688 6.76172ZM11.3008 4.95703C11.4648 4.87109 11.6289 4.84766 11.793 4.88672C11.9648 4.92578 12.0977 5 12.1914 5.10938C12.2852 5.21875 12.3164 5.34766 12.2852 5.49609C12.2617 5.64453 12.1367 5.78906 11.9102 5.92969C11.6836 6.0625 11.4844 6.10938 11.3125 6.07031C11.1406 6.03125 11.0195 5.94922 10.9492 5.82422C10.8789 5.69922 10.8672 5.55469 10.9141 5.39062C10.9609 5.21875 11.0898 5.07422 11.3008 4.95703ZM13.1992 4.61719C13.4336 4.64062 13.6289 4.66016 13.7852 4.67578C13.9492 4.69141 14.082 4.70312 14.1836 4.71094C14.3008 4.71875 14.3945 4.72266 14.4648 4.72266C14.5352 4.73047 14.6289 4.73047 14.7461 4.72266C14.8477 4.71484 14.9805 4.70703 15.1445 4.69922C15.3086 4.68359 15.5156 4.66016 15.7656 4.62891C15.7109 4.70703 15.668 4.77734 15.6367 4.83984C15.6055 4.89453 15.5781 4.94531 15.5547 4.99219L15.4844 5.13281C15.4688 5.17969 15.4531 5.22656 15.4375 5.27344C15.4219 5.3125 15.4062 5.35938 15.3906 5.41406C15.3828 5.46875 15.375 5.52734 15.3672 5.58984H17.1719L17.0078 6.53906L15.3555 6.44531C15.3164 6.84375 15.2891 7.15234 15.2734 7.37109C15.2578 7.58984 15.2422 7.75 15.2266 7.85156L15.2031 8.0625C15.1797 8.35938 15.1562 8.68359 15.1328 9.03516C15.1094 9.37891 15.1016 9.69922 15.1094 9.99609C15.1172 10.293 15.1445 10.543 15.1914 10.7461C15.2383 10.9414 15.3203 11.0391 15.4375 11.0391C15.5547 11.0391 15.6641 11.0078 15.7656 10.9453C15.8672 10.8828 15.9531 10.8086 16.0234 10.7227C16.1016 10.6367 16.1602 10.5508 16.1992 10.4648C16.2383 10.3711 16.2578 10.3008 16.2578 10.2539C16.2578 10.207 16.2461 10.1523 16.2227 10.0898C16.1836 9.97266 16.1133 9.82422 16.0117 9.64453C16.2383 9.69922 16.4375 9.75391 16.6094 9.80859C16.6953 9.83984 16.7734 9.87109 16.8438 9.90234C16.9219 9.93359 17.0117 9.96875 17.1133 10.0078C17.1992 10.0469 17.3086 10.0938 17.4414 10.1484C17.5742 10.2031 17.7305 10.2695 17.9102 10.3477C17.7383 10.3789 17.6133 10.4297 17.5352 10.5C17.4883 10.5312 17.4531 10.5664 17.4297 10.6055C17.375 10.6914 17.3125 10.8086 17.2422 10.957C17.1719 11.0977 17.0664 11.2383 16.9258 11.3789C16.7852 11.5195 16.5938 11.6445 16.3516 11.7539C16.1172 11.8633 15.8008 11.9258 15.4023 11.9414C14.9883 11.957 14.6719 11.8867 14.4531 11.7305C14.2422 11.5742 14.0859 11.3945 13.9844 11.1914C13.8906 10.9805 13.8359 10.7734 13.8203 10.5703C13.8047 10.3672 13.793 10.2305 13.7852 10.1602C13.7773 10.0898 13.7773 9.91406 13.7852 9.63281C13.793 9.35156 13.8047 9.04297 13.8203 8.70703C13.8359 8.36328 13.8516 8.03516 13.8672 7.72266C13.8828 7.40234 13.8906 7.16797 13.8906 7.01953C13.8906 6.94141 13.8945 6.85938 13.9023 6.77344C13.9023 6.70312 13.9023 6.62891 13.9023 6.55078C13.9102 6.46484 13.9141 6.38281 13.9141 6.30469L12.2148 6.29297L12.1445 5.625L13.8555 5.67188C13.8398 5.58594 13.8203 5.50781 13.7969 5.4375C13.7812 5.35938 13.7656 5.29688 13.75 5.25C13.7266 5.19531 13.7031 5.14844 13.6797 5.10938C13.6484 5.07031 13.6133 5.02734 13.5742 4.98047C13.5352 4.94141 13.4844 4.89062 13.4219 4.82812C13.3594 4.76562 13.2852 4.69531 13.1992 4.61719ZM17.3711 3.11719C17.5508 3.14844 17.7148 3.17187 17.8633 3.1875C18.0117 3.19531 18.1367 3.20313 18.2383 3.21094C18.3555 3.21875 18.457 3.22266 18.543 3.22266C18.6602 3.21484 18.7969 3.20313 18.9531 3.1875C19.0859 3.17187 19.2461 3.15234 19.4336 3.12891C19.6289 3.10547 19.8516 3.07422 20.1016 3.03516C19.9844 3.09766 19.8867 3.16016 19.8086 3.22266C19.7305 3.27734 19.668 3.33594 19.6211 3.39844C19.5664 3.46875 19.5234 3.53516 19.4922 3.59766C19.4531 3.69922 19.4102 3.91016 19.3633 4.23047C19.3164 4.50391 19.2578 4.91016 19.1875 5.44922C19.125 5.98828 19.043 6.71875 18.9414 7.64062C19.2227 7.35938 19.4883 7.14844 19.7383 7.00781C19.9961 6.85938 20.2227 6.75391 20.418 6.69141C20.6445 6.62109 20.8555 6.58594 21.0508 6.58594C21.293 6.60938 21.5391 6.6875 21.7891 6.82031C22.0469 6.94531 22.2852 7.09375 22.5039 7.26562C22.7305 7.4375 22.9258 7.62109 23.0898 7.81641C23.2617 8.01172 23.3828 8.18359 23.4531 8.33203C23.5 8.43359 23.5234 8.56641 23.5234 8.73047C23.5234 8.88672 23.5078 9.05859 23.4766 9.24609C23.4453 9.43359 23.4023 9.625 23.3477 9.82031C23.293 10.0156 23.2383 10.1992 23.1836 10.3711C23.1367 10.543 23.0938 10.6953 23.0547 10.8281C23.0156 10.9531 22.9922 11.043 22.9844 11.0977C22.9688 11.2148 22.9766 11.3281 23.0078 11.4375C23.0312 11.5312 23.0781 11.6328 23.1484 11.7422C23.2188 11.8438 23.3242 11.9297 23.4648 12C23.3555 11.9844 23.2383 11.9727 23.1133 11.9648C22.9961 11.9492 22.8828 11.9375 22.7734 11.9297C22.6484 11.9219 22.5234 11.918 22.3984 11.918H21.9766C21.8438 11.918 21.6914 11.9219 21.5195 11.9297C21.3477 11.9297 21.1602 11.9336 20.957 11.9414C21.0664 11.9023 21.1602 11.8516 21.2383 11.7891C21.3164 11.7188 21.3828 11.6523 21.4375 11.5898C21.5 11.5195 21.5547 11.4453 21.6016 11.3672C21.6328 11.3047 21.6719 11.1875 21.7188 11.0156C21.7656 10.8359 21.8086 10.6328 21.8477 10.4062C21.8867 10.1719 21.9141 9.92578 21.9297 9.66797C21.9531 9.41016 21.957 9.16406 21.9414 8.92969C21.9336 8.6875 21.8984 8.47266 21.8359 8.28516C21.7812 8.09766 21.6953 7.96094 21.5781 7.875C21.2266 7.60938 20.9062 7.48047 20.6172 7.48828C20.3359 7.48828 20.0664 7.60156 19.8086 7.82812C19.7148 7.91406 19.625 8 19.5391 8.08594C19.4609 8.16406 19.375 8.25781 19.2812 8.36719C19.1875 8.46875 19.1016 8.57422 19.0234 8.68359C19.0234 8.80078 19.0273 8.92969 19.0352 9.07031C19.043 9.21094 19.0508 9.34766 19.0586 9.48047C19.0664 9.62891 19.0781 9.77734 19.0938 9.92578C19.1094 10.1523 19.1328 10.375 19.1641 10.5938C19.1875 10.7812 19.2188 10.9883 19.2578 11.2148C19.2969 11.4336 19.3477 11.6328 19.4102 11.8125C19.3086 11.7969 19.2031 11.793 19.0938 11.8008C18.9844 11.8008 18.8789 11.8008 18.7773 11.8008C18.6602 11.8086 18.5469 11.8125 18.4375 11.8125C18.3359 11.8203 18.2305 11.832 18.1211 11.8477C18.0273 11.8633 17.9258 11.8789 17.8164 11.8945C17.707 11.9023 17.6016 11.918 17.5 11.9414C17.5938 11.7617 17.6719 11.5859 17.7344 11.4141C17.7969 11.2344 17.8477 11.0781 17.8867 10.9453C17.9336 10.7891 17.9727 10.6367 18.0039 10.4883C18.0273 10.3711 18.043 10.1484 18.0508 9.82031C18.0664 9.48438 18.0781 9.10156 18.0859 8.67188C18.0938 8.23438 18.0977 7.77344 18.0977 7.28906C18.0977 6.80469 18.0938 6.34375 18.0859 5.90625C18.0781 5.46875 18.0625 5.08594 18.0391 4.75781C18.0234 4.42969 18.0039 4.20312 17.9805 4.07812C17.9492 3.95313 17.9062 3.82812 17.8516 3.70312C17.8047 3.59375 17.7422 3.48828 17.6641 3.38672C17.5859 3.27734 17.4883 3.1875 17.3711 3.11719Z" fill="#0E3A71"/>
<path d="M23.7578 3.62109C24.0078 3.68359 24.2461 3.73047 24.4727 3.76172C24.6992 3.79297 24.8984 3.81641 25.0703 3.83203C25.2734 3.85547 25.4609 3.86328 25.6328 3.85547C25.8516 3.85547 26.125 3.83594 26.4531 3.79688C26.7891 3.75781 27.1328 3.72266 27.4844 3.69141C27.8359 3.65234 28.1719 3.62891 28.4922 3.62109C28.8203 3.60547 29.0859 3.625 29.2891 3.67969C29.4922 3.72656 29.6992 3.80078 29.9102 3.90234C30.1289 3.99609 30.3281 4.11719 30.5078 4.26562C30.6875 4.40625 30.8359 4.57422 30.9531 4.76953C31.0703 4.95703 31.1367 5.17188 31.1523 5.41406C31.1445 5.71875 31.0742 6.00391 30.9414 6.26953C30.832 6.49609 30.6484 6.73047 30.3906 6.97266C30.1328 7.20703 29.7617 7.38672 29.2773 7.51172C29.5195 7.54297 29.7266 7.59766 29.8984 7.67578C30.0781 7.74609 30.2305 7.83203 30.3555 7.93359C30.4883 8.02734 30.5938 8.13281 30.6719 8.25C30.7578 8.36719 30.8242 8.48438 30.8711 8.60156C30.9883 8.875 31.043 9.17969 31.0352 9.51562C30.9883 9.95312 30.8984 10.3008 30.7656 10.5586C30.6406 10.8164 30.4961 11.0156 30.332 11.1562C30.168 11.2969 30 11.3945 29.8281 11.4492C29.6562 11.5039 29.5 11.5469 29.3594 11.5781C29.2188 11.6094 29.0469 11.625 28.8438 11.625C28.6406 11.625 28.4219 11.6211 28.1875 11.6133C27.9609 11.5977 27.7266 11.5859 27.4844 11.5781C27.2422 11.5625 27.0117 11.5625 26.793 11.5781C26.6133 11.5938 26.3945 11.6094 26.1367 11.625C25.918 11.6406 25.6445 11.6602 25.3164 11.6836C24.9883 11.6992 24.6055 11.7188 24.168 11.7422C24.2539 11.6797 24.3242 11.6094 24.3789 11.5312C24.4414 11.4453 24.4922 11.3711 24.5312 11.3086C24.5703 11.2305 24.6055 11.1562 24.6367 11.0859C24.6602 11.0234 24.6797 10.8516 24.6953 10.5703C24.7109 10.2891 24.7227 9.95312 24.7305 9.5625C24.7383 9.16406 24.7422 8.73828 24.7422 8.28516C24.75 7.82422 24.7461 7.38281 24.7305 6.96094C24.7227 6.53125 24.707 6.15234 24.6836 5.82422C24.668 5.48828 24.6445 5.24609 24.6133 5.09766C24.5664 4.93359 24.5039 4.76562 24.4258 4.59375C24.3633 4.44531 24.2734 4.28516 24.1562 4.11328C24.0469 3.94141 23.9141 3.77734 23.7578 3.62109ZM26.2305 4.81641C26.2305 4.84766 26.2344 4.95312 26.2422 5.13281C26.25 5.28906 26.2578 5.53125 26.2656 5.85938C26.2812 6.17969 26.3008 6.63672 26.3242 7.23047C26.5195 7.31641 26.7109 7.36328 26.8984 7.37109C27.0859 7.37109 27.2539 7.36328 27.4023 7.34766C27.5742 7.32422 27.7383 7.28516 27.8945 7.23047C28.1055 7.14453 28.2695 7.00391 28.3867 6.80859C28.5117 6.61328 28.5938 6.41016 28.6328 6.19922C28.6797 5.98047 28.6914 5.77734 28.668 5.58984C28.6445 5.39453 28.5938 5.25391 28.5156 5.16797C28.3672 5.03516 28.1836 4.92578 27.9648 4.83984C27.7773 4.76953 27.5391 4.72266 27.25 4.69922C26.9688 4.66797 26.6289 4.70703 26.2305 4.81641ZM26.1719 10.3711C26.4609 10.5195 26.7148 10.6172 26.9336 10.6641C27.1523 10.7109 27.3359 10.7344 27.4844 10.7344C27.6562 10.7344 27.8047 10.7109 27.9297 10.6641C28.0781 10.5938 28.2227 10.5 28.3633 10.3828C28.5117 10.2578 28.6211 10.1133 28.6914 9.94922C28.7695 9.77734 28.8008 9.58984 28.7852 9.38672C28.7695 9.17578 28.6797 8.94531 28.5156 8.69531C28.3672 8.51562 28.1875 8.375 27.9766 8.27344C27.7891 8.1875 27.5508 8.13281 27.2617 8.10938C26.9805 8.08594 26.6328 8.15234 26.2188 8.30859L26.1719 10.3711ZM31.9609 12.3281C32.0391 12.2109 32.1016 12.1016 32.1484 12C32.1953 11.8984 32.2344 11.8125 32.2656 11.7422C32.2969 11.6562 32.3203 11.5781 32.3359 11.5078C32.3438 11.4609 32.3477 11.3242 32.3477 11.0977C32.3477 10.8711 32.3398 10.5859 32.3242 10.2422C32.3164 9.89844 32.3047 9.51172 32.2891 9.08203C32.2812 8.65234 32.2656 8.21484 32.2422 7.76953C32.2266 7.32422 32.207 6.89062 32.1836 6.46875C32.168 6.04688 32.1523 5.66797 32.1367 5.33203C32.1211 4.98828 32.1055 4.70703 32.0898 4.48828C32.0742 4.26953 32.0625 4.14453 32.0547 4.11328C32.0391 4.06641 32.0117 4.01953 31.9727 3.97266C31.8945 3.87891 31.7617 3.78906 31.5742 3.70312C31.9727 3.60156 32.2773 3.51953 32.4883 3.45703C32.6133 3.42578 32.7227 3.39453 32.8164 3.36328C32.9023 3.33203 32.9883 3.30078 33.0742 3.26953C33.1445 3.23828 33.2227 3.20313 33.3086 3.16406C33.3945 3.11719 33.4727 3.06641 33.543 3.01172C33.5039 3.23828 33.4727 3.45703 33.4492 3.66797C33.4258 3.87891 33.4062 4.07422 33.3906 4.25391C33.375 4.45703 33.3672 4.65234 33.3672 4.83984C33.3281 5.22266 33.3047 5.64062 33.2969 6.09375C33.2969 6.53906 33.3008 6.99219 33.3086 7.45312C33.3164 7.91406 33.332 8.36328 33.3555 8.80078C33.3789 9.23828 33.4023 9.63672 33.4258 9.99609C33.457 10.3477 33.4844 10.6484 33.5078 10.8984C33.5391 11.1406 33.5625 11.2969 33.5781 11.3672C33.6094 11.4844 33.6406 11.5977 33.6719 11.707C33.7031 11.8008 33.7383 11.8984 33.7773 12C33.8164 12.1094 33.8633 12.1953 33.918 12.2578H32.7812C32.6797 12.2578 32.582 12.2617 32.4883 12.2695C32.4023 12.2773 32.3125 12.2852 32.2188 12.293C32.125 12.3008 32.0391 12.3125 31.9609 12.3281ZM37.4805 6.75C37.6836 6.75 37.8945 6.78906 38.1133 6.86719C38.332 6.9375 38.543 7.03125 38.7461 7.14844C38.9492 7.25781 39.1328 7.37891 39.2969 7.51172C39.4688 7.63672 39.6094 7.75781 39.7188 7.875C39.9141 8.08594 40.0469 8.37109 40.1172 8.73047C40.1953 9.08203 40.2109 9.44531 40.1641 9.82031C40.1172 10.1875 40.0078 10.5352 39.8359 10.8633C39.6641 11.1914 39.4258 11.4336 39.1211 11.5898C38.9023 11.6992 38.6875 11.7852 38.4766 11.8477C38.2656 11.9102 38.0625 11.957 37.8672 11.9883C37.6719 12.0195 37.4883 12.0352 37.3164 12.0352C37.1445 12.0352 36.9961 12.0312 36.8711 12.0234C36.6367 12.0078 36.3906 11.9258 36.1328 11.7773C35.8828 11.6289 35.6445 11.4453 35.418 11.2266C35.1992 11.0078 35.0117 10.7695 34.8555 10.5117C34.6992 10.2461 34.6055 9.99609 34.5742 9.76172C34.5273 9.44141 34.5195 9.10547 34.5508 8.75391C34.582 8.40234 34.6953 8.07812 34.8906 7.78125C35.0938 7.48438 35.3984 7.23828 35.8047 7.04297C36.2188 6.84766 36.7773 6.75 37.4805 6.75ZM37.0938 11.2969C37.1797 11.3125 37.2969 11.293 37.4453 11.2383C37.5938 11.1758 37.7383 11.0781 37.8789 10.9453C38.0273 10.8125 38.1562 10.6445 38.2656 10.4414C38.3828 10.2305 38.4531 9.97656 38.4766 9.67969C38.5 9.39062 38.5 9.125 38.4766 8.88281C38.4609 8.64062 38.4258 8.42969 38.3711 8.25C38.3164 8.0625 38.2539 7.91016 38.1836 7.79297C38.1133 7.67578 38.0391 7.59375 37.9609 7.54688C37.8281 7.47656 37.668 7.42188 37.4805 7.38281C37.293 7.33594 37.1328 7.34375 37 7.40625C36.9375 7.4375 36.8594 7.50391 36.7656 7.60547C36.6719 7.70703 36.5781 7.83594 36.4844 7.99219C36.3906 8.14062 36.3047 8.3125 36.2266 8.50781C36.1562 8.70312 36.1055 8.90625 36.0742 9.11719C36.043 9.32812 36.0352 9.55469 36.0508 9.79688C36.0742 10.0391 36.125 10.2695 36.2031 10.4883C36.2812 10.6992 36.3906 10.8828 36.5312 11.0391C36.6797 11.1875 36.8672 11.2734 37.0938 11.2969ZM43.8672 6.75C44.0703 6.75 44.2812 6.78906 44.5 6.86719C44.7188 6.9375 44.9297 7.03125 45.1328 7.14844C45.3359 7.25781 45.5195 7.37891 45.6836 7.51172C45.8555 7.63672 45.9961 7.75781 46.1055 7.875C46.3008 8.08594 46.4336 8.37109 46.5039 8.73047C46.582 9.08203 46.5977 9.44531 46.5508 9.82031C46.5039 10.1875 46.3945 10.5352 46.2227 10.8633C46.0508 11.1914 45.8125 11.4336 45.5078 11.5898C45.2891 11.6992 45.0742 11.7852 44.8633 11.8477C44.6523 11.9102 44.4492 11.957 44.2539 11.9883C44.0586 12.0195 43.875 12.0352 43.7031 12.0352C43.5312 12.0352 43.3828 12.0312 43.2578 12.0234C43.0234 12.0078 42.7773 11.9258 42.5195 11.7773C42.2695 11.6289 42.0312 11.4453 41.8047 11.2266C41.5859 11.0078 41.3984 10.7695 41.2422 10.5117C41.0859 10.2461 40.9922 9.99609 40.9609 9.76172C40.9141 9.44141 40.9062 9.10547 40.9375 8.75391C40.9688 8.40234 41.082 8.07812 41.2773 7.78125C41.4805 7.48438 41.7852 7.23828 42.1914 7.04297C42.6055 6.84766 43.1641 6.75 43.8672 6.75ZM43.4805 11.2969C43.5664 11.3125 43.6836 11.293 43.832 11.2383C43.9805 11.1758 44.125 11.0781 44.2656 10.9453C44.4141 10.8125 44.543 10.6445 44.6523 10.4414C44.7695 10.2305 44.8398 9.97656 44.8633 9.67969C44.8867 9.39062 44.8867 9.125 44.8633 8.88281C44.8477 8.64062 44.8125 8.42969 44.7578 8.25C44.7031 8.0625 44.6406 7.91016 44.5703 7.79297C44.5 7.67578 44.4258 7.59375 44.3477 7.54688C44.2148 7.47656 44.0547 7.42188 43.8672 7.38281C43.6797 7.33594 43.5195 7.34375 43.3867 7.40625C43.3242 7.4375 43.2461 7.50391 43.1523 7.60547C43.0586 7.70703 42.9648 7.83594 42.8711 7.99219C42.7773 8.14062 42.6914 8.3125 42.6133 8.50781C42.543 8.70312 42.4922 8.90625 42.4609 9.11719C42.4297 9.32812 42.4219 9.55469 42.4375 9.79688C42.4609 10.0391 42.5117 10.2695 42.5898 10.4883C42.668 10.6992 42.7773 10.8828 42.918 11.0391C43.0664 11.1875 43.2539 11.2734 43.4805 11.2969ZM47.0547 6.44531C47.2344 6.42969 47.3867 6.41406 47.5117 6.39844C47.6445 6.38281 47.7539 6.36719 47.8398 6.35156C47.9414 6.33594 48.0273 6.32031 48.0977 6.30469C48.168 6.29688 48.2461 6.28125 48.332 6.25781C48.4102 6.24219 48.4961 6.22266 48.5898 6.19922C48.6914 6.16797 48.8008 6.13281 48.918 6.09375L48.8477 7.58203C49.0195 7.30859 49.2188 7.10156 49.4453 6.96094C49.6719 6.8125 49.8867 6.70312 50.0898 6.63281C50.332 6.54688 50.5742 6.49609 50.8164 6.48047C51.0664 6.48828 51.2969 6.52734 51.5078 6.59766C51.6875 6.66016 51.8672 6.75781 52.0469 6.89062C52.2344 7.02344 52.3789 7.21875 52.4805 7.47656C52.7461 7.20312 53.0078 6.99219 53.2656 6.84375C53.5312 6.6875 53.7656 6.57031 53.9688 6.49219C54.2109 6.40625 54.4375 6.35547 54.6484 6.33984C54.9297 6.33203 55.1875 6.37891 55.4219 6.48047C55.6641 6.58203 55.875 6.71094 56.0547 6.86719C56.2344 7.01562 56.3789 7.17578 56.4883 7.34766C56.5977 7.51172 56.6602 7.65625 56.6758 7.78125C56.6992 7.95312 56.6875 8.17578 56.6406 8.44922C56.5938 8.71484 56.5391 8.98828 56.4766 9.26953C56.4141 9.54297 56.3555 9.79688 56.3008 10.0312C56.2539 10.2578 56.2344 10.418 56.2422 10.5117C56.2656 10.5898 56.3203 10.6836 56.4062 10.793C56.4844 10.8867 56.5977 11.0039 56.7461 11.1445C56.9023 11.2773 57.125 11.4336 57.4141 11.6133C57.1641 11.6055 56.9414 11.5977 56.7461 11.5898C56.5586 11.582 56.3984 11.5703 56.2656 11.5547C56.1094 11.5391 55.9727 11.5273 55.8555 11.5195C55.7617 11.5195 55.6484 11.5117 55.5156 11.4961C55.4062 11.4883 55.2617 11.4766 55.082 11.4609C54.9102 11.4453 54.7109 11.4297 54.4844 11.4141C54.5703 11.3906 54.6406 11.3477 54.6953 11.2852C54.75 11.2148 54.7969 11.1484 54.8359 11.0859C54.875 11.0078 54.9062 10.9219 54.9297 10.8281C54.9453 10.75 54.9609 10.625 54.9766 10.4531C54.9922 10.2812 55.0039 10.0859 55.0117 9.86719C55.0273 9.64844 55.0352 9.41797 55.0352 9.17578C55.043 8.93359 55.043 8.70312 55.0352 8.48438C55.0273 8.26562 55.0117 8.06641 54.9883 7.88672C54.9648 7.70703 54.9336 7.57031 54.8945 7.47656C54.8633 7.40625 54.8086 7.35156 54.7305 7.3125C54.6523 7.26562 54.5625 7.23828 54.4609 7.23047C54.3594 7.21484 54.2578 7.21875 54.1562 7.24219C54.0547 7.25781 53.9648 7.28906 53.8867 7.33594C53.8164 7.39062 53.7227 7.46484 53.6055 7.55859C53.5039 7.64453 53.3711 7.76172 53.207 7.91016C53.043 8.05859 52.8359 8.24609 52.5859 8.47266C52.5625 8.96484 52.543 9.36328 52.5273 9.66797C52.5195 9.96484 52.5117 10.1914 52.5039 10.3477C52.4961 10.5352 52.4922 10.6641 52.4922 10.7344C52.4844 10.7969 52.4883 10.8555 52.5039 10.9102C52.5195 11.0273 52.5664 11.1367 52.6445 11.2383C52.5508 11.2148 52.4492 11.1992 52.3398 11.1914C52.2383 11.1836 52.1445 11.1758 52.0586 11.168C51.957 11.1602 51.8555 11.1562 51.7539 11.1562C51.668 11.1562 51.5742 11.1602 51.4727 11.168C51.3867 11.1758 51.2812 11.1875 51.1562 11.2031C51.0312 11.2109 50.8945 11.2227 50.7461 11.2383C50.8086 11.1992 50.8594 11.1523 50.8984 11.0977C50.9375 11.043 50.9688 10.9922 50.9922 10.9453C51.0234 10.8906 51.0469 10.8398 51.0625 10.793C51.0703 10.7461 51.0859 10.6328 51.1094 10.4531C51.1328 10.2656 51.1484 10.0469 51.1562 9.79688C51.1641 9.54688 51.1641 9.28516 51.1562 9.01172C51.1484 8.73047 51.1211 8.47656 51.0742 8.25C51.0273 8.01562 50.9531 7.82422 50.8516 7.67578C50.7578 7.52734 50.6328 7.46094 50.4766 7.47656C50.2891 7.49219 50.0977 7.53906 49.9023 7.61719C49.7383 7.67969 49.5625 7.77344 49.375 7.89844C49.1875 8.02344 49.0117 8.19141 48.8477 8.40234C48.8164 8.98828 48.7969 9.45312 48.7891 9.79688C48.7891 10.1406 48.793 10.4023 48.8008 10.582C48.8086 10.793 48.8164 10.9375 48.8242 11.0156C48.832 11.0703 48.8516 11.125 48.8828 11.1797C48.9062 11.2266 48.9336 11.2812 48.9648 11.3438C49.0039 11.4062 49.0469 11.4648 49.0938 11.5195L47.2305 11.4258C47.293 11.3945 47.3477 11.3555 47.3945 11.3086C47.4414 11.2539 47.4805 11.1992 47.5117 11.1445C47.543 11.082 47.5742 11.0195 47.6055 10.957C47.6289 10.9023 47.6484 10.7734 47.6641 10.5703C47.6875 10.3672 47.707 10.1289 47.7227 9.85547C47.7383 9.57422 47.75 9.28125 47.7578 8.97656C47.7734 8.66406 47.7812 8.375 47.7812 8.10938C47.7891 7.83594 47.793 7.60547 47.793 7.41797C47.793 7.22266 47.7891 7.10547 47.7812 7.06641C47.7578 6.98828 47.7148 6.90625 47.6523 6.82031C47.5977 6.75781 47.5234 6.69141 47.4297 6.62109C47.3359 6.54297 47.2109 6.48438 47.0547 6.44531Z" fill="#299D43"/>
<path d="M61.58 9.66667V7H67.9666L67.9881 5.66H61.58V3L58 6.33333L61.58 9.66667Z" fill="#0E3A71"/>
<path d="M69.42 12.9999V10.3333H63.0334L63.0119 8.99325H69.42V6.33325L73 9.66658L69.42 12.9999Z" fill="#299D43"/>
</svg>
